<svg xmlns="http://www.w3.org/2000/svg" xmlns:xlink="http://www.w3.org/1999/xlink" width="500" zoomAndPan="magnify" viewBox="0 0 375 374.999991" height="500" preserveAspectRatio="xMidYMid meet" version="1.0"><defs><g/><clipPath id="e60b8e27b7"><path d="M 167.636719 177 L 213 177 L 213 223 L 167.636719 223 Z M 167.636719 177 " clip-rule="nonzero"/></clipPath></defs><g fill="#008b48" fill-opacity="1"><g transform="translate(77.504413, 223.297074)"><g><path d="M 53.09375 -49 L 53.09375 -4.453125 C 53.09375 2.453125 50.648438 7.960938 45.765625 12.078125 C 40.890625 16.203125 34.484375 18.265625 26.546875 18.265625 C 18.421875 18.265625 11.148438 16.113281 4.734375 11.8125 L 10.1875 1.1875 C 14.90625 4.457031 19.960938 6.09375 25.359375 6.09375 C 29.117188 6.09375 32.070312 5.179688 34.21875 3.359375 C 36.375 1.546875 37.453125 -0.90625 37.453125 -4 L 37.453125 -9.1875 C 34.117188 -4.820312 29.421875 -2.640625 23.359375 -2.640625 C 17.117188 -2.640625 12.039062 -4.820312 8.125 -9.1875 C 4.21875 -13.550781 2.265625 -19.273438 2.265625 -26.359375 C 2.265625 -33.265625 4.175781 -38.851562 8 -43.125 C 11.820312 -47.40625 16.820312 -49.546875 23 -49.546875 C 29.238281 -49.609375 34.054688 -47.425781 37.453125 -43 L 37.453125 -49 Z M 27.265625 -14 C 30.296875 -14 32.75 -15.101562 34.625 -17.3125 C 36.507812 -19.53125 37.453125 -22.394531 37.453125 -25.90625 C 37.453125 -29.476562 36.507812 -32.367188 34.625 -34.578125 C 32.75 -36.796875 30.296875 -37.90625 27.265625 -37.90625 C 24.179688 -37.90625 21.679688 -36.796875 19.765625 -34.578125 C 17.859375 -32.367188 16.90625 -29.476562 16.90625 -25.90625 C 16.90625 -22.394531 17.859375 -19.53125 19.765625 -17.3125 C 21.679688 -15.101562 24.179688 -14 27.265625 -14 Z M 27.265625 -14 "/></g></g></g><g fill="#008b48" fill-opacity="1"><g transform="translate(129.410014, 223.297074)"><g><path d="M 22 -49 L 22 -40.71875 C 25.457031 -46.601562 30.757812 -49.601562 37.90625 -49.71875 L 37.90625 -35.546875 C 33.425781 -35.972656 29.757812 -35.226562 26.90625 -33.3125 C 24.0625 -31.40625 22.425781 -28.695312 22 -25.1875 L 22 0 L 6.265625 0 L 6.265625 -49 Z M 22 -49 "/></g></g></g><g fill="#008b48" fill-opacity="1"><g transform="translate(161.316704, 223.297074)"><g><path d="M 29 -49.546875 C 37 -49.546875 43.453125 -47.253906 48.359375 -42.671875 C 53.265625 -38.097656 55.71875 -32.050781 55.71875 -24.53125 C 55.71875 -17.019531 53.265625 -10.960938 48.359375 -6.359375 C 43.453125 -1.753906 37 0.546875 29 0.546875 C 20.9375 0.546875 14.453125 -1.753906 9.546875 -6.359375 C 4.640625 -10.960938 2.1875 -17.019531 2.1875 -24.53125 C 2.1875 -32.050781 4.640625 -38.097656 9.546875 -42.671875 C 14.453125 -47.253906 20.9375 -49.546875 29 -49.546875 Z M 29 -37.09375 C 25.726562 -37.09375 23.078125 -35.910156 21.046875 -33.546875 C 19.015625 -31.179688 18 -28.117188 18 -24.359375 C 18 -20.546875 19.015625 -17.472656 21.046875 -15.140625 C 23.078125 -12.804688 25.726562 -11.640625 29 -11.640625 C 32.207031 -11.640625 34.828125 -12.804688 36.859375 -15.140625 C 38.890625 -17.472656 39.90625 -20.546875 39.90625 -24.359375 C 39.90625 -28.117188 38.890625 -31.179688 36.859375 -33.546875 C 34.828125 -35.910156 32.207031 -37.09375 29 -37.09375 Z M 29 -37.09375 "/></g></g></g><g fill="#008b48" fill-opacity="1"><g transform="translate(212.313262, 223.297074)"><g><path d="M 67.90625 0 L 52.359375 0 L 42.71875 -31.09375 L 33.09375 0 L 17.453125 0 L -0.453125 -49 L 15.546875 -49 L 25.640625 -15.09375 L 35.453125 -49 L 50.453125 -49 L 60.546875 -15.09375 L 70.453125 -49 L 85.8125 -49 Z M 67.90625 0 "/></g></g></g><path fill="#ffffff" d="M 209.636719 199.25 C 209.636719 199.890625 209.605469 200.535156 209.542969 201.175781 C 209.476562 201.816406 209.382812 202.453125 209.257812 203.082031 C 209.132812 203.714844 208.976562 204.339844 208.789062 204.953125 C 208.601562 205.570312 208.386719 206.175781 208.140625 206.769531 C 207.894531 207.367188 207.617188 207.945312 207.316406 208.515625 C 207.011719 209.082031 206.679688 209.632812 206.324219 210.167969 C 205.964844 210.703125 205.582031 211.21875 205.175781 211.71875 C 204.765625 212.214844 204.335938 212.691406 203.878906 213.148438 C 203.425781 213.601562 202.949219 214.035156 202.449219 214.441406 C 201.953125 214.851562 201.4375 215.234375 200.902344 215.59375 C 200.363281 215.949219 199.8125 216.28125 199.246094 216.582031 C 198.679688 216.886719 198.097656 217.160156 197.503906 217.410156 C 196.90625 217.65625 196.300781 217.871094 195.6875 218.058594 C 195.070312 218.246094 194.445312 218.402344 193.816406 218.527344 C 193.183594 218.652344 192.546875 218.746094 191.90625 218.808594 C 191.265625 218.871094 190.625 218.90625 189.980469 218.90625 C 189.335938 218.90625 188.695312 218.871094 188.054688 218.808594 C 187.414062 218.746094 186.777344 218.652344 186.144531 218.527344 C 185.515625 218.402344 184.890625 218.246094 184.273438 218.058594 C 183.660156 217.871094 183.054688 217.65625 182.457031 217.410156 C 181.863281 217.160156 181.28125 216.886719 180.714844 216.582031 C 180.148438 216.28125 179.59375 215.949219 179.058594 215.59375 C 178.523438 215.234375 178.007812 214.851562 177.511719 214.441406 C 177.011719 214.035156 176.535156 213.601562 176.082031 213.148438 C 175.625 212.691406 175.195312 212.214844 174.785156 211.71875 C 174.378906 211.21875 173.996094 210.703125 173.636719 210.167969 C 173.277344 209.632812 172.949219 209.082031 172.644531 208.515625 C 172.339844 207.945312 172.066406 207.367188 171.820312 206.769531 C 171.574219 206.175781 171.355469 205.570312 171.171875 204.953125 C 170.984375 204.339844 170.828125 203.714844 170.703125 203.082031 C 170.574219 202.453125 170.480469 201.816406 170.417969 201.175781 C 170.355469 200.535156 170.324219 199.890625 170.324219 199.25 C 170.324219 198.605469 170.355469 197.960938 170.417969 197.320312 C 170.480469 196.679688 170.574219 196.046875 170.703125 195.414062 C 170.828125 194.78125 170.984375 194.160156 171.171875 193.542969 C 171.355469 192.925781 171.574219 192.320312 171.820312 191.726562 C 172.066406 191.132812 172.339844 190.550781 172.644531 189.984375 C 172.949219 189.414062 173.277344 188.863281 173.636719 188.328125 C 173.996094 187.792969 174.378906 187.277344 174.785156 186.777344 C 175.195312 186.28125 175.625 185.804688 176.082031 185.347656 C 176.535156 184.894531 177.011719 184.460938 177.511719 184.054688 C 178.007812 183.644531 178.523438 183.261719 179.058594 182.90625 C 179.59375 182.546875 180.148438 182.214844 180.714844 181.914062 C 181.28125 181.609375 181.863281 181.335938 182.457031 181.089844 C 183.054688 180.84375 183.660156 180.625 184.273438 180.4375 C 184.890625 180.25 185.515625 180.09375 186.144531 179.96875 C 186.777344 179.84375 187.414062 179.75 188.054688 179.6875 C 188.695312 179.625 189.335938 179.59375 189.980469 179.59375 C 190.625 179.59375 191.265625 179.625 191.90625 179.6875 C 192.546875 179.75 193.183594 179.84375 193.816406 179.96875 C 194.445312 180.09375 195.070312 180.25 195.6875 180.4375 C 196.300781 180.625 196.90625 180.84375 197.503906 181.089844 C 198.097656 181.335938 198.679688 181.609375 199.246094 181.914062 C 199.8125 182.214844 200.363281 182.546875 200.902344 182.90625 C 201.4375 183.261719 201.953125 183.644531 202.449219 184.054688 C 202.949219 184.460938 203.425781 184.894531 203.878906 185.347656 C 204.335938 185.804688 204.765625 186.28125 205.175781 186.777344 C 205.582031 187.277344 205.964844 187.792969 206.324219 188.328125 C 206.679688 188.863281 207.011719 189.414062 207.316406 189.984375 C 207.617188 190.550781 207.894531 191.132812 208.140625 191.726562 C 208.386719 192.320312 208.601562 192.925781 208.789062 193.542969 C 208.976562 194.160156 209.132812 194.78125 209.257812 195.414062 C 209.382812 196.046875 209.476562 196.679688 209.542969 197.320312 C 209.605469 197.960938 209.636719 198.605469 209.636719 199.25 Z M 209.636719 199.25 " fill-opacity="1" fill-rule="nonzero"/><g clip-path="url(#e60b8e27b7)"><path fill="#008b48" d="M 207.234375 184.929688 C 206.671875 184.289062 206.078125 183.679688 205.445312 183.109375 C 204.8125 182.535156 204.152344 181.996094 203.460938 181.5 C 202.769531 181 202.050781 180.539062 201.304688 180.125 C 200.5625 179.707031 199.796875 179.332031 199.011719 179 C 198.222656 178.667969 197.421875 178.382812 196.601562 178.144531 C 195.785156 177.902344 194.953125 177.710938 194.113281 177.566406 C 193.273438 177.417969 192.425781 177.320312 191.574219 177.269531 C 190.722656 177.21875 189.871094 177.21875 189.019531 177.265625 C 188.167969 177.308594 187.320312 177.402344 186.480469 177.546875 C 185.636719 177.6875 184.808594 177.878906 183.988281 178.113281 C 183.167969 178.347656 182.363281 178.632812 181.574219 178.957031 C 180.785156 179.285156 180.019531 179.65625 179.273438 180.070312 C 178.527344 180.484375 177.808594 180.9375 177.113281 181.433594 C 176.417969 181.929688 175.753906 182.464844 175.121094 183.035156 C 174.484375 183.605469 173.886719 184.210938 173.320312 184.847656 C 172.753906 185.488281 172.226562 186.15625 171.738281 186.855469 C 171.226562 187.582031 170.757812 188.335938 170.332031 189.117188 C 168.722656 192.109375 167.835938 195.296875 167.671875 198.691406 C 167.65625 199.070312 167.644531 199.457031 167.644531 199.839844 C 167.644531 200.75 167.699219 201.65625 167.808594 202.5625 C 167.917969 203.464844 168.078125 204.359375 168.296875 205.246094 C 168.515625 206.128906 168.785156 206.996094 169.105469 207.847656 C 169.429688 208.699219 169.800781 209.53125 170.226562 210.335938 C 170.648438 211.144531 171.117188 211.921875 171.632812 212.671875 C 172.152344 213.421875 172.710938 214.140625 173.3125 214.820312 C 173.917969 215.503906 174.558594 216.148438 175.238281 216.75 C 175.921875 217.355469 176.636719 217.917969 177.386719 218.4375 C 178.132812 218.953125 178.910156 219.425781 179.71875 219.851562 C 180.523438 220.277344 181.351562 220.648438 182.203125 220.972656 C 183.054688 221.296875 183.921875 221.570312 184.804688 221.789062 C 185.6875 222.007812 186.582031 222.175781 187.488281 222.285156 C 188.390625 222.398438 189.296875 222.453125 190.207031 222.457031 C 191.121094 222.457031 192.027344 222.40625 192.929688 222.296875 C 193.835938 222.191406 194.730469 222.027344 195.613281 221.8125 C 196.5 221.597656 197.367188 221.328125 198.222656 221.007812 C 199.074219 220.6875 199.902344 220.316406 200.710938 219.894531 C 201.519531 219.472656 202.296875 219.003906 203.046875 218.488281 C 203.800781 217.972656 204.515625 217.414062 205.199219 216.8125 C 205.882812 216.210938 206.527344 215.570312 207.132812 214.890625 C 207.742188 214.210938 208.304688 213.496094 208.824219 212.75 C 209.34375 212 209.816406 211.222656 210.242188 210.417969 C 210.667969 209.613281 211.042969 208.785156 211.371094 207.9375 C 211.695312 207.085938 211.96875 206.21875 212.191406 205.335938 C 212.410156 204.453125 212.578125 203.558594 212.691406 202.65625 C 212.804688 201.75 212.863281 200.84375 212.867188 199.933594 C 212.871094 199.023438 212.820312 198.113281 212.710938 197.210938 C 212.605469 196.304688 212.445312 195.410156 212.230469 194.523438 C 212.019531 193.640625 211.75 192.769531 211.433594 191.917969 C 211.113281 191.066406 210.742188 190.234375 210.324219 189.425781 C 209.902344 188.617188 209.4375 187.835938 208.921875 187.085938 C 208.410156 186.332031 207.851562 185.613281 207.25 184.929688 Z M 182.703125 202.960938 C 184.613281 204.304688 186.402344 205.105469 188.246094 205.40625 L 188.246094 201.820312 C 183.449219 200.71875 181.003906 199.078125 181.003906 195.382812 L 181.003906 195.324219 C 181.003906 191.804688 183.570312 189.359375 188.128906 189.03125 L 188.128906 187.332031 L 191.230469 187.332031 L 191.230469 189.121094 C 193.523438 189.363281 195.621094 190.136719 197.515625 191.449219 L 195.074219 195.441406 C 193.851562 194.601562 192.519531 194.011719 191.078125 193.667969 L 191.078125 197.125 C 195.808594 198.230469 198.203125 199.929688 198.203125 203.628906 L 198.203125 203.6875 C 198.203125 207.324219 195.402344 209.558594 191.167969 209.949219 L 191.167969 212.867188 L 188.070312 212.867188 L 188.070312 209.867188 C 185.128906 209.585938 182.445312 208.601562 180.023438 206.914062 Z M 182.703125 202.960938 " fill-opacity="1" fill-rule="nonzero"/></g><path fill="#008b48" d="M 193.046875 204.058594 L 193.046875 204 C 193.046875 203.191406 192.597656 202.746094 191.050781 202.296875 L 191.050781 205.578125 C 192.421875 205.429688 193.046875 204.921875 193.046875 204.058594 Z M 193.046875 204.058594 " fill-opacity="1" fill-rule="nonzero"/><path fill="#008b48" d="M 188.277344 193.382812 C 186.816406 193.503906 186.25 194.101562 186.25 194.875 L 186.25 194.9375 C 186.25 195.710938 186.667969 196.15625 188.277344 196.605469 Z M 188.277344 193.382812 " fill-opacity="1" fill-rule="nonzero"/></svg>